<?xml version="1.0" encoding="UTF-8"?>
<!-- Generator: Adobe Illustrator 16.0.4, SVG Export Plug-In . SVG Version: 6.00 Build 0)  -->
<!DOCTYPE svg PUBLIC "-//W3C//DTD SVG 1.1//EN" "http://www.w3.org/Graphics/SVG/1.1/DTD/svg11.dtd">
<svg version="1.1" id="Layer_1" xmlns="http://www.w3.org/2000/svg" xmlns:xlink="http://www.w3.org/1999/xlink" x="0px" y="0px" width="420px" height="420px" viewBox="0 0 420 420" enable-background="new 0 0 420 420" xml:space="preserve">
<polygon opacity="0.1" enable-background="new    " points="178.525,252.311 40.331,321.154 243.219,420 380.854,351.154 "/>
<linearGradient id="SVGID_1_" gradientUnits="userSpaceOnUse" x1="600.7715" y1="520.168" x2="743.583" y2="520.168" gradientTransform="matrix(1 0 0 1 -562 -371)">
	<stop offset="0" style="stop-color:#FFFFFF"/>
	<stop offset="1" style="stop-color:#CDCBCA"/>
</linearGradient>
<polygon fill="url(#SVGID_1_)" points="181.583,53.926 151.827,18.208 38.772,74.756 38.772,280.129 181.583,208.696 "/>
<polygon opacity="0.1" fill="#343433" enable-background="new    " points="151.827,18.208 151.827,18.208 181.583,59.884   145.881,77.737 "/>
<path fill="#343434" d="M102.872,114.706l0.215,59.525c0.065,18.058-8.436,30.623-20.886,36.966  c-11.246,5.729-17.792,1.83-21.141-5.199l11.414-14.419c2.227,3.732,4.253,6.816,9.069,4.362c4.617-2.353,7.523-6.085,7.492-14.798  l-0.214-59.278L102.872,114.706z"/>
<linearGradient id="SVGID_2_" gradientUnits="userSpaceOnUse" x1="708.2559" y1="432.3223" x2="731.548" y2="403.5587" gradientTransform="matrix(1 0 0 1 -562 -371)">
	<stop offset="0" style="stop-color:#969796"/>
	<stop offset="1" style="stop-color:#59595C"/>
</linearGradient>
<polygon fill="url(#SVGID_2_)" stroke="#343433" stroke-width="3" stroke-linecap="round" stroke-linejoin="round" points="  151.827,18.208 181.583,53.926 151.827,65.833 "/>
<linearGradient id="SVGID_3_" gradientUnits="userSpaceOnUse" x1="700.2656" y1="569.9258" x2="843.0898" y2="569.9258" gradientTransform="matrix(1 0 0 1 -562 -371)">
	<stop offset="0" style="stop-color:#FFFFFF"/>
	<stop offset="1" style="stop-color:#CDCBCA"/>
</linearGradient>
<polygon fill="url(#SVGID_3_)" points="281.09,103.683 251.341,67.967 138.266,124.526 138.266,329.884 281.09,258.466 "/>
<polygon opacity="0.1" fill="#343433" enable-background="new    " points="251.341,67.967 251.341,67.967 281.09,109.642   245.395,127.505 "/>
<linearGradient id="SVGID_4_" gradientUnits="userSpaceOnUse" x1="807.7627" y1="482.083" x2="831.059" y2="453.3146" gradientTransform="matrix(1 0 0 1 -562 -371)">
	<stop offset="0" style="stop-color:#969796"/>
	<stop offset="1" style="stop-color:#59595C"/>
</linearGradient>
<polygon fill="url(#SVGID_4_)" stroke="#343433" stroke-width="3" stroke-linecap="round" stroke-linejoin="round" points="  251.341,67.967 281.09,103.683 251.341,115.6 "/>
<polygon opacity="0.1" fill="#343433" stroke="#F05A29" stroke-width="3" enable-background="new    " points="350.854,117.737   350.854,117.737 380.604,159.398 344.888,177.265 "/>
<linearGradient id="SVGID_5_" gradientUnits="userSpaceOnUse" x1="907.2822" y1="531.8447" x2="930.572" y2="503.0843" gradientTransform="matrix(1 0 0 1 -562 -371)">
	<stop offset="0" style="stop-color:#969796"/>
	<stop offset="1" style="stop-color:#59595C"/>
</linearGradient>
<polygon fill="url(#SVGID_5_)" stroke="#F05A29" stroke-width="3" stroke-linecap="round" stroke-linejoin="round" points="  350.854,117.737 380.604,153.453 350.854,165.357 "/>
<g>
	<polygon fill="#1A1A1A" points="214.689,171.846 236.402,161.24 234.533,172.933 234.027,173.181 235.896,161.49  "/>
</g>
<linearGradient id="SVGID_6_" gradientUnits="userSpaceOnUse" x1="799.7715" y1="619.6953" x2="942.6035" y2="619.6953" gradientTransform="matrix(1 0 0 1 -562 -371)">
	<stop offset="0" style="stop-color:#FFFFFF"/>
	<stop offset="1" style="stop-color:#CDCBCA"/>
</linearGradient>
<polygon fill="url(#SVGID_6_)" points="380.604,153.453 350.854,117.737 237.771,174.282 237.771,379.654 380.604,308.223 "/>
<path fill="#343434" d="M278.865,210.538l75.896-33.867l-10.635,98.545l-31.492,24.489l-30.581,3.227L278.865,210.538  L278.865,210.538z M339.821,202.514l-47.595,21.242l1.182,34.266l32.933-14.698l-1.692,15.683l-10.737,8.258l-10.454,1.209  l-0.311-9.041l-9.537,4.256l0.615,17.793l19.203-2.03l19.744-15.354l4.012-37.111l-34.631,15.455l-0.395-11.605l36.328-16.213"/>
<polygon opacity="0.1" fill="#343433" enable-background="new    " points="350.854,117.737 350.854,117.737 380.604,159.398   344.888,177.265 "/>
<linearGradient id="SVGID_7_" gradientUnits="userSpaceOnUse" x1="907.2822" y1="531.8447" x2="930.572" y2="503.0843" gradientTransform="matrix(1 0 0 1 -562 -371)">
	<stop offset="0" style="stop-color:#969796"/>
	<stop offset="1" style="stop-color:#59595C"/>
</linearGradient>
<polygon fill="url(#SVGID_7_)" stroke="#343433" stroke-width="3" stroke-linecap="round" stroke-linejoin="round" points="  350.854,117.737 380.604,153.453 350.854,165.357 "/>
<path fill="#343433" d="M386.749,148.121l-29.748-35.716c-2.347-2.818-6.441-3.678-9.724-2.035l-58.188,29.095v-35.993  c0-1.871-0.653-3.683-1.854-5.12l-29.747-35.716c-2.349-2.818-6.443-3.679-9.726-2.034l-58.179,29.101V53.718  c0-1.871-0.656-3.683-1.854-5.121l-29.756-35.718c-2.348-2.818-6.442-3.677-9.724-2.033L35.194,67.393  c-2.71,1.355-4.421,4.125-4.421,7.155v205.373c0,5.829,6.345,9.776,11.579,7.155l87.915-43.976v86.573  c0,5.829,6.344,9.778,11.578,7.155l87.928-43.971v86.586c0,5.827,6.345,9.78,11.578,7.154l142.829-71.433  c2.71-1.354,4.423-4.125,4.423-7.155v-154.77C388.604,151.37,387.949,149.558,386.749,148.121z M137.595,122.977  c-0.508,0.254-0.829,0.773-0.829,1.341v4.92c-2.336-0.084-5.646-0.088-7.163-2.227c-1.661-2.341-1.028-6.088,0.003-8.533  c1.383-3.28,4.133-5.987,7.556-7.064c3.293-1.035,5.629,0.882,7.249,3.623l10.907-14.285c-2.142-3.56-5.345-6.415-9.658-6.629  c-4.644-0.231-9.379,2.038-13.199,4.47c-8.223,5.238-14.205,13.873-16.58,23.297c-0.938,3.722-1.267,7.561-0.979,11.389  c0.238,3.172,0.904,6.466,2.698,9.151c3.125,4.677,8.918,5.662,14.154,5.758l3.523,0.077c0.515,0.017,1.009,0.034,1.488,0.054  v19.366c-2.608,1.481-5.792,2.634-8.798,1.768c-2.537-0.731-4.392-2.77-5.81-4.9l-11.415,14.049  c2.003,3.855,5.306,6.906,9.609,7.902c5.487,1.27,11.651-0.628,16.414-3.347v46.071l-96.494,48.266V75.475l111.164-55.602  l28.647,34.388v47.464L137.595,122.977z M236.402,161.032l-1.869,11.693L178.286,200.2l-2.905,18.101l56.208-27.447l-3.339,20.659  l-22.755,20.182l-0.239,0.007l-0.267,0.237l-19.535,0.474l1.43-8.945l-13.297,6.492l-3.501,21.735l32.067-0.756l34.119-30.289  v58.343l-96.505,48.257V125.245l111.183-55.613l28.641,34.386v47.468l-31.966,15.984l5.024-31.058l-69.511,33.951l-2.942,18.12  L236.402,161.032z M379.104,307.088l-139.832,69.931V175.001l111.19-55.6l28.642,34.386V307.088z"/>
</svg>